<svg width="32" height="22" viewBox="0 0 32 22" fill="none" xmlns="http://www.w3.org/2000/svg">
<g clip-path="url(#clip0_32_1507)">
<rect width="32" height="22" fill="white"/>
<path d="M3.04762 0C1.35676 0 0 1.41608 0 3.11748V18.8707C0 20.572 1.35676 22 3.04762 22H28.9524C30.6433 22 32 20.572 32 18.8707V3.11748C32 1.41608 30.6433 0 28.9524 0H3.04762ZM3.04762 1.51724H28.9524C29.1759 1.51724 29.3922 1.57156 29.5834 1.65948L16.9881 13.264C16.4062 13.8 15.6306 13.8001 15.0476 13.264L2.42857 1.65948C2.61733 1.57433 2.82785 1.51724 3.04762 1.51724ZM1.54766 2.91595L10.4881 11.1422L1.71429 19.6412C1.59851 19.4135 1.52381 19.1554 1.52381 18.8707V3.11748C1.52381 3.04776 1.54004 2.98274 1.54766 2.91595ZM30.4524 2.92771C30.4593 2.99075 30.476 3.05171 30.476 3.11736V18.8706C30.476 19.1493 30.4088 19.4048 30.2975 19.6292L21.5475 11.1303L30.4524 2.92771ZM20.4405 12.1497L29 20.4827C28.984 20.4827 28.9684 20.4827 28.9524 20.4827H3.04762C3.03543 20.4827 3.024 20.4829 3.01181 20.4827L11.607 12.1615L14.0118 14.3781C15.1423 15.4177 16.8935 15.4192 18.0237 14.3781L20.4405 12.1497Z" fill="black"/>
</g>
<defs>
<clipPath id="clip0_32_1507">
<rect width="32" height="22" fill="white"/>
</clipPath>
</defs>
</svg>
