<svg width="19" height="19" viewBox="0 0 19 19" fill="none" xmlns="http://www.w3.org/2000/svg">
<path d="M8.54967 0.000171883C3.83552 0.000171883 0 3.85765 0 8.59878C0 13.3399 3.83552 17.1974 8.54967 17.1974C10.7122 17.1974 12.6908 16.3824 14.2001 15.0449L18.1985 19L19 18.1816L15.005 14.2297C16.3091 12.7196 17.1028 10.7511 17.1028 8.59861C17.0995 3.85748 13.2638 0.000171883 8.54967 0.000171883ZM8.54967 16.0494C4.46645 16.0494 1.14144 12.7065 1.14144 8.59878C1.14144 4.49219 4.46531 1.14815 8.54967 1.14815C12.6329 1.14815 15.9579 4.49105 15.9579 8.59878C15.9579 12.7054 12.634 16.0494 8.54967 16.0494Z" fill="white"/>
</svg>
